<?xml version="1.0" standalone="no"?><!DOCTYPE svg PUBLIC "-//W3C//DTD SVG 1.1//EN" "http://www.w3.org/Graphics/SVG/1.1/DTD/svg11.dtd"><svg t="1551420001768" class="icon" style="" viewBox="0 0 1024 1024" version="1.1" xmlns="http://www.w3.org/2000/svg" p-id="1240" xmlns:xlink="http://www.w3.org/1999/xlink" width="200" height="200"><defs><style type="text/css"></style></defs><path d="M910.848 580.096l-32.256 32.256-107.008-107.008 32.256-32.256a29.184 29.184 0 0 1 41.472 0l66.56 66.56a29.184 29.184 0 0 1-1.024 40.448zM716.8 204.8H204.8v614.4h204.8v102.4H204.8a102.4 102.4 0 0 1-102.4-102.4V204.8a102.4 102.4 0 0 1 102.4-102.4h512a102.4 102.4 0 0 1 102.4 102.4v204.8h-102.4z m-102.4 673.792L460.8 921.6l43.008-150.016zM307.2 614.4v-102.4h256l-102.4 102.4z m0-307.2h307.2v102.4H307.2z m446.464 214.528l107.008 107.008-235.008 235.008-107.008-107.008z" fill="" p-id="1241"></path></svg>