<?xml version="1.0" standalone="no"?><!DOCTYPE svg PUBLIC "-//W3C//DTD SVG 1.1//EN" "http://www.w3.org/Graphics/SVG/1.1/DTD/svg11.dtd"><svg t="1551424862958" class="icon" style="" viewBox="0 0 1024 1024" version="1.1" xmlns="http://www.w3.org/2000/svg" p-id="4482" xmlns:xlink="http://www.w3.org/1999/xlink" width="200" height="200"><defs><style type="text/css"></style></defs><path d="M307.2 512h409.6V409.6H307.2z m563.2-289.28V102.4h-102.4v102.4h-102.4V102.4h-102.4v102.4H460.8V102.4H358.4v102.4H256V102.4H153.6v120.32A99.328 99.328 0 0 0 102.4 307.2v512a110.592 110.592 0 0 0 117.248 102.4h584.704A110.592 110.592 0 0 0 921.6 819.2V307.2a99.328 99.328 0 0 0-51.2-84.48zM819.2 819.2H204.8V307.2h614.4zM307.2 716.8h409.6v-102.4H307.2z" fill="" p-id="4483"></path></svg>