<?xml version="1.0" standalone="no"?><!DOCTYPE svg PUBLIC "-//W3C//DTD SVG 1.1//EN" "http://www.w3.org/Graphics/SVG/1.1/DTD/svg11.dtd"><svg t="1552008320727" class="icon" style="" viewBox="0 0 1024 1024" version="1.1" xmlns="http://www.w3.org/2000/svg" p-id="1148" xmlns:xlink="http://www.w3.org/1999/xlink" width="64" height="64"><defs><style type="text/css"></style></defs><path d="M768.6 478.6H519.9v-96.8h111.7c15.3 0 27.8-12.5 27.8-27.8V202c0-15.3-12.5-27.8-27.8-27.8H392.5c-15.3 0-27.8 12.5-27.8 27.8v152c0 15.3 12.5 27.8 27.8 27.8h111.7v96.8H255.4c-7.8 0-14.2 6.3-14.2 14.2v94h15.7v-92.5h247.2v92.5h15.7v-92.5H767v92.5h15.7v-94c0.1-7.8-6.2-14.2-14.1-14.2zM281.2 700.5c14.7-10.3 24.3-27.3 24.3-46.6 0-31.4-25.5-56.9-56.9-56.9s-56.9 25.5-56.9 56.9c0 19.3 9.6 36.3 24.3 46.6-29.9 8.2-52 35.6-52 68v73.7c0 4.2 3.4 7.5 7.5 7.5h154c4.2 0 7.5-3.4 7.5-7.5v-73.7c0.1-32.4-22-59.8-51.8-68zM544.6 700.5c14.7-10.3 24.3-27.3 24.3-46.6 0-31.4-25.5-56.9-56.9-56.9s-56.9 25.5-56.9 56.9c0 19.3 9.6 36.3 24.3 46.6-29.9 8.2-52 35.6-52 68v73.7c0 4.2 3.4 7.5 7.5 7.5h154c4.2 0 7.5-3.4 7.5-7.5v-73.7c0.2-32.4-21.9-59.8-51.8-68zM808 700.5c14.7-10.3 24.3-27.3 24.3-46.6 0-31.4-25.5-56.9-56.9-56.9s-56.9 25.5-56.9 56.9c0 19.3 9.6 36.3 24.3 46.6-29.9 8.2-52 35.6-52 68v73.7c0 4.2 3.4 7.5 7.5 7.5h154c4.2 0 7.5-3.4 7.5-7.5v-73.7c0.2-32.4-21.9-59.8-51.8-68z" fill="" p-id="1149"></path></svg>