<?xml version="1.0" standalone="no"?><!DOCTYPE svg PUBLIC "-//W3C//DTD SVG 1.1//EN" "http://www.w3.org/Graphics/SVG/1.1/DTD/svg11.dtd"><svg t="1551419679874" class="icon" style="" viewBox="0 0 1024 1024" version="1.1" xmlns="http://www.w3.org/2000/svg" p-id="979" xmlns:xlink="http://www.w3.org/1999/xlink" width="200" height="200"><defs><style type="text/css"></style></defs><path d="M987.858824 446.343529l-140.950588 0L846.908235 200.583529l-116.856471 0 0 86.136471-80.715294 0 0 36.743529L567.416471 323.463529l0 122.88L24.094118 446.343529c-10.24 0-18.070588 7.830588-18.070588 18.070588s7.830588 18.070588 18.070588 18.070588l81.317647 0L105.411765 999.905882c0 10.24 7.830588 18.070588 18.070588 18.070588s18.070588-7.830588 18.070588-18.070588L141.552941 482.484706l426.465882 0 80.715294 0 36.141176 0 44.574118 0 36.141176 0 80.715294 0 17.468235 0L863.774118 999.905882c0 10.24 7.830588 18.070588 18.070588 18.070588s18.070588-7.830588 18.070588-18.070588L899.915294 482.484706 987.858824 482.484706c10.24 0 18.070588-7.830588 18.070588-18.070588S997.496471 446.343529 987.858824 446.343529zM603.557647 446.343529 603.557647 359.604706l44.574118 0 0 86.738824L603.557647 446.343529zM684.875294 446.343529 684.875294 323.463529l0-0.602353 44.574118 0 0 123.482353L684.875294 446.343529zM765.590588 446.343529 765.590588 286.117647l0-49.995294 44.574118 0 0 209.618824L765.590588 445.741176z" p-id="980"></path><path d="M643.312941 616.809412 338.522353 616.809412c-10.24 0-18.070588 7.830588-18.070588 18.070588L320.451765 999.905882c0 10.24 7.830588 18.070588 18.070588 18.070588s18.070588-7.830588 18.070588-18.070588l0-249.976471 269.251765 0L625.844706 999.905882c0 10.24 7.830588 18.070588 18.070588 18.070588s18.070588-7.830588 18.070588-18.070588l0-365.025882C661.383529 625.242353 653.552941 616.809412 643.312941 616.809412zM356.592941 713.788235l0-60.837647 269.251765 0 0 60.837647L356.592941 713.788235z" p-id="981"></path><path d="M209.618824 342.136471c47.585882 0 86.136471-38.550588 86.136471-86.136471 0-41.562353-29.515294-75.896471-68.065882-84.329412L227.689412 27.105882c0-10.24-7.830588-18.070588-18.070588-18.070588s-18.070588 7.830588-18.070588 18.070588l0 143.962353c-39.152941 8.432941-68.065882 42.767059-68.065882 84.329412C123.482353 302.983529 162.032941 342.136471 209.618824 342.136471zM209.618824 205.402353c27.708235 0 49.995294 22.287059 49.995294 49.995294s-22.287059 49.995294-49.995294 49.995294c-27.708235 0-49.995294-22.287059-49.995294-49.995294S181.910588 205.402353 209.618824 205.402353z" p-id="982"></path></svg>